<?xml version="1.0" encoding="utf-8"?><svg width="55" height="56" fill="none" xmlns="http://www.w3.org/2000/svg" viewBox="0 0 55 56"><path d="M23.993 29.372v-1.285c0-.362.282-.643.643-.643H38.78c.361 0 .643.281.643.643v1.285a.635.635 0 01-.643.643H24.636a.635.635 0 01-.643-.643zM24.636 32.587H38.78c.361 0 .643.281.643.643v1.285a.635.635 0 01-.643.643H24.636a.635.635 0 01-.643-.643V33.23c0-.362.282-.643.643-.643zM24.636 37.73H38.78c.361 0 .643.28.643.642v1.286a.635.635 0 01-.643.643H24.636a.635.635 0 01-.643-.643v-1.286c0-.361.282-.642.643-.642z" fill="#fff"/><path fill-rule="evenodd" clip-rule="evenodd" d="M16.279 21.315a7.415 7.415 0 117.173-9.3h12.756c1.064 0 2.55.623 3.294 1.366l6.268 6.268c.743.743 1.366 2.23 1.366 3.295v23.143a1.93 1.93 0 01-1.928 1.928h-27a1.93 1.93 0 01-1.93-1.928V21.315zm2.571-.458a7.421 7.421 0 004.813-6.27h10.616v8.357a1.93 1.93 0 001.928 1.928h8.358v20.572H18.85V20.857zm18.824-5.668c-.14-.14-.482-.321-.824-.442v7.554h7.554c-.12-.341-.301-.683-.442-.824l-6.288-6.288zm-20.395-.29h4v-2h-4v-4h-2v4h-4v2h4v4h2v-4z" fill="#fff"/></svg>