<?xml version="1.0" encoding="utf-8"?><svg width="55" height="56" fill="none" xmlns="http://www.w3.org/2000/svg" viewBox="0 0 55 56"><path d="M37.786 35.964a2.59 2.59 0 01-2.572 2.572 2.59 2.59 0 01-2.571-2.572 2.59 2.59 0 012.571-2.571 2.59 2.59 0 012.572 2.571zM22.357 20.536a2.59 2.59 0 01-2.571 2.571 2.59 2.59 0 01-2.572-2.571 2.59 2.59 0 012.572-2.572 2.59 2.59 0 012.571 2.572zM42.93 35.964a7.716 7.716 0 00-7.715-7.714 7.716 7.716 0 00-7.714 7.714 7.716 7.716 0 007.714 7.715 7.716 7.716 0 007.715-7.715zM41 14.107c0-.703-.583-1.286-1.286-1.286H36.5c-.402 0-.783.201-1.025.523L14.261 41.629c-.16.221-.261.483-.261.764 0 .703.583 1.286 1.286 1.286H18.5c.402 0 .784-.201 1.025-.523l21.214-28.285c.16-.222.261-.483.261-.764zm-13.5 6.429a7.716 7.716 0 00-7.714-7.715 7.716 7.716 0 00-7.715 7.715 7.716 7.716 0 007.715 7.714 7.716 7.716 0 007.714-7.714z" fill="#fff"/></svg>